<svg width="32" height="32" viewBox="0 0 32 32" fill="none" xmlns="http://www.w3.org/2000/svg">
<path fill-rule="evenodd" clip-rule="evenodd" d="M16 32C24.8366 32 32 24.8366 32 16C32 7.16344 24.8366 0 16 0C7.16344 0 0 7.16344 0 16C0 24.8366 7.16344 32 16 32ZM14.2855 25.4595H18.2464V12.7798H14.2855V25.4595ZM14.6605 8.12743C14.2542 8.4868 14.0511 8.94774 14.0511 9.51024C14.0511 10.0727 14.2542 10.5337 14.6605 10.8931C15.0667 11.2524 15.5941 11.4321 16.2425 11.4321C16.8909 11.4321 17.4183 11.2524 17.8245 10.8931C18.2308 10.5337 18.4339 10.0727 18.4339 9.51024C18.4339 8.94774 18.2308 8.4868 17.8245 8.12743C17.4183 7.76805 16.8909 7.58836 16.2425 7.58836C15.5941 7.58836 15.0667 7.76805 14.6605 8.12743Z" fill="#828282"/>
</svg>
