<svg width="32" height="32" viewBox="0 0 32 32" fill="none" xmlns="http://www.w3.org/2000/svg">
<path fill-rule="evenodd" clip-rule="evenodd" d="M19.2224 25.979C20.478 28.3869 19.8648 30.6185 16.5653 31.7931C13.2657 32.9677 5.92032 28.8861 3.5421 25.979C-0.687229 20.8092 -0.138061 16.4546 0.282343 13.121L0.28235 13.1209L0.282352 13.1209C0.308934 12.9101 0.335001 12.7034 0.359313 12.5009C0.768124 9.09464 5.52769 0.607884 13.2657 0.0798551C21.0036 -0.448173 25.2683 1.6739 28.2452 5.51222C31.278 9.42261 32.2336 14.3956 31.9536 15.9071C31.3988 18.9022 30.3476 19.93 27.8364 19.93H22.9016C19.8648 19.93 17.9668 23.5711 19.2224 25.979ZM8.00968 17.8745C8.00968 18.9124 7.17299 19.7538 6.14089 19.7538C5.10878 19.7538 4.27209 18.9124 4.27209 17.8745C4.27209 16.8366 5.10878 15.9952 6.14089 15.9952C7.17299 15.9952 8.00968 16.8366 8.00968 17.8745ZM8.12648 11.708C9.15859 11.708 9.99528 10.8666 9.99528 9.82874C9.99528 8.79083 9.15859 7.94943 8.12648 7.94943C7.09438 7.94943 6.25769 8.79083 6.25769 9.82874C6.25769 10.8666 7.09438 11.708 8.12648 11.708ZM17.9961 5.83521C17.9961 6.87312 17.1594 7.71451 16.1273 7.71451C15.0952 7.71451 14.2585 6.87312 14.2585 5.83521C14.2585 4.7973 15.0952 3.9559 16.1273 3.9559C17.1594 3.9559 17.9961 4.7973 17.9961 5.83521ZM24.128 11.708C25.1601 11.708 25.9968 10.8666 25.9968 9.82874C25.9968 8.79083 25.1601 7.94943 24.128 7.94943C23.0959 7.94943 22.2592 8.79083 22.2592 9.82874C22.2592 10.8666 23.0959 11.708 24.128 11.708Z" fill="#828282"/>
</svg>
