<svg width="32" height="32" viewBox="0 0 32 32" fill="none" xmlns="http://www.w3.org/2000/svg">
<path d="M19.2224 25.979C20.478 28.3869 19.8648 30.6185 16.5653 31.7931C13.2657 32.9677 5.92032 28.8861 3.5421 25.979C-0.954678 20.4823 -0.0494976 15.9071 0.359313 12.5009C0.768124 9.09464 5.52769 0.607883 13.2657 0.0798551C21.0036 -0.448173 25.2683 1.6739 28.2452 5.51222C31.278 9.42261 32.2336 14.3956 31.9536 15.9071C31.3988 18.9022 30.3476 19.93 27.8364 19.93H22.9016C19.8648 19.93 17.9668 23.5711 19.2224 25.979Z" fill="#828282"/>
<ellipse cx="6.14089" cy="17.8745" rx="1.86879" ry="1.8793" fill="#E5E5E5"/>
<ellipse cx="8.12648" cy="9.82874" rx="1.86879" ry="1.8793" fill="#E5E5E5"/>
<ellipse cx="16.1273" cy="5.83521" rx="1.86879" ry="1.8793" fill="#E5E5E5"/>
<ellipse cx="24.128" cy="9.82874" rx="1.86879" ry="1.8793" fill="#E5E5E5"/>
</svg>
