<svg width="32" height="32" viewBox="0 0 32 32" fill="none" xmlns="http://www.w3.org/2000/svg">
<circle cx="16" cy="16" r="14" fill="#828282" stroke="#828282" stroke-width="4"/>
<path d="M18.2464 25.4595H14.2855V12.7798H18.2464V25.4595ZM14.0511 9.51024C14.0511 8.94774 14.2542 8.4868 14.6605 8.12743C15.0667 7.76805 15.5941 7.58836 16.2425 7.58836C16.8909 7.58836 17.4183 7.76805 17.8245 8.12743C18.2308 8.4868 18.4339 8.94774 18.4339 9.51024C18.4339 10.0727 18.2308 10.5337 17.8245 10.8931C17.4183 11.2524 16.8909 11.4321 16.2425 11.4321C15.5941 11.4321 15.0667 11.2524 14.6605 10.8931C14.2542 10.5337 14.0511 10.0727 14.0511 9.51024Z" fill="#E5E5E5"/>
</svg>
