<svg width="32" height="32" viewBox="0 0 32 32" fill="none" xmlns="http://www.w3.org/2000/svg">
<path d="M8.97245 6.15316C8.97246 4.11591 10.5046 2.39846 12.5277 2.16789L26.6503 0.558307C29.0289 0.287212 31.107 2.14191 31.1083 4.53716C31.1095 6.59842 29.5548 8.33437 27.5068 8.55849L13.3774 10.1047C11.0227 10.3624 8.97245 8.5232 8.97245 6.15316Z" fill="#828282"/>
<path d="M8.95856 6.73706H11.3161V27.4294H8.95856V6.73706Z" fill="#828282"/>
<path d="M28.8201 5.93326H31.1058V24.7987H28.8201V5.93326Z" fill="#828282"/>
<path d="M11.1305 27.4358C11.1305 29.9565 8.63885 32 5.56525 32C2.49165 32 0 29.9565 0 27.4358C0 24.915 2.49165 22.8716 5.56525 22.8716C8.63885 22.8716 11.1305 24.915 11.1305 27.4358Z" fill="#828282"/>
<path d="M31.1058 25.3058C31.1058 27.8266 28.6141 29.87 25.5405 29.87C22.4669 29.87 19.9753 27.8266 19.9753 25.3058C19.9753 22.7851 22.4669 20.7416 25.5405 20.7416C28.6141 20.7416 31.1058 22.7851 31.1058 25.3058Z" fill="#828282"/>
</svg>
